<svg id="Laag_2" data-name="Laag 2" xmlns="http://www.w3.org/2000/svg" viewBox="0 0 90.64 108.66">
    <defs>
        <style>
            .cls-1 {
                fill: #eaeaea;
            }

        </style>
    </defs>
    <title>applelogov2</title>
    <path class="cls-1" d="M92,140s9,1,15,4,14-5,17-8,11-20,11-20-15-9-15-22,12-21,12-21-6-11-18-11-23,5-23,5-16-6-21-5S49,68,46,81s-2,30,4,39,5,11,10,16,7,7,8,7,1,1,5,1,5-1,8-2a81.44,81.44,0,0,1,9-2" transform="translate(-44.36 -36)" />
    <path class="cls-1" d="M90,62V56s3-10,6-12,7-6,12-7,4-1,4-1,2,6,0,8-3,9-7,11-3,4-7,5" transform="translate(-44.36 -36)" />
</svg>
